<svg width="30" height="30" viewBox="0 0 30 30" fill="none" xmlns="http://www.w3.org/2000/svg">
<path d="M15 9.8V22.5467M11 28.3333H19C25.6667 28.3333 28.3334 25.6667 28.3334 19V11C28.3334 4.33332 25.6667 1.66666 19 1.66666H11C4.33335 1.66666 1.66669 4.33332 1.66669 11V19C1.66669 25.6667 4.33335 28.3333 11 28.3333ZM23.5067 19.36V9.10664C23.5067 8.07997 22.68 7.33332 21.6667 7.41332H21.6134C19.8267 7.55999 17.12 8.48 15.6 9.42667L15.4534 9.52001C15.2134 9.66668 14.8 9.66668 14.5467 9.52001L14.3334 9.38667C12.8267 8.44 10.12 7.54664 8.33335 7.39997C7.32002 7.31997 6.49335 8.08 6.49335 9.09333V19.36C6.49335 20.1733 7.15999 20.9467 7.97333 21.04L8.21332 21.08C10.0533 21.32 12.9067 22.2667 14.5334 23.16L14.5733 23.1733C14.8 23.3067 15.1733 23.3067 15.3867 23.1733C17.0133 22.2667 19.88 21.3333 21.7333 21.08L22.0134 21.04C22.84 20.9467 23.5067 20.1866 23.5067 19.36Z" stroke="#292D32" stroke-width="1.5" stroke-linecap="round" stroke-linejoin="round"/>
</svg>
